<svg xmlns="http://www.w3.org/2000/svg" width="24px" height="24px" version="1.1" viewBox="0 0 24 24"><g fill="none" fill-rule="evenodd"><path d="m1 16v3c0 2.1675 1.7239 3.9323 3.8754 3.9981l0.12459 0.0019034h3v1h-3c-2.7614 0-5-2.2386-5-5v-3h1zm23 0v3c0 2.7614-2.2386 5-5 5h-3v-1h3c2.1675 0 3.9323-1.7239 3.9981-3.8754l0.0019034-0.12459v-3h1zm-9.1667 0.66667c0.55228 0 1 0.44772 1 1v1.3333c0 0.55228-0.44772 1-1 1h-1.3333c-0.55228 0-1-0.44772-1-1v-1.3333c0-0.55228 0.44772-1 1-1h1.3333zm4.1667 0c0.55228 0 1 0.44772 1 1v1.3333c0 0.55228-0.44772 1-1 1h-1.3333c-0.55228 0-1-0.44772-1-1v-1.3333c0-0.55228 0.44772-1 1-1h1.3333zm-9.5-4.1667c1.1046 0 2 0.89543 2 2v3.5c0 1.1046-0.89543 2-2 2h-3.5c-1.1046 0-2-0.89543-2-2v-3.5c0-1.1046 0.89543-2 2-2h3.5zm5.3333 5.1667h-1.3333v1.3333h1.3333v-1.3333zm4.1667 0h-1.3333v1.3333h1.3333v-1.3333zm-9.5-4.1667h-3.5c-0.52718 0-0.95908 0.40794-0.99726 0.92537l-0.0027429 0.074631v3.5c0 0.52718 0.40794 0.95908 0.92537 0.99726l0.074631 0.0027429h3.5c0.52718 0 0.95908-0.40794 0.99726-0.92537l0.0027429-0.074631v-3.5c0-0.52718-0.40794-0.95908-0.92537-0.99726l-0.074631-0.0027429zm5.3333-1c0.55228 0 1 0.44772 1 1v1.3333c0 0.55228-0.44772 1-1 1h-1.3333c-0.55228 0-1-0.44772-1-1v-1.3333c0-0.55228 0.44772-1 1-1h1.3333zm4.1667 0c0.55228 0 1 0.44772 1 1v1.3333c0 0.55228-0.44772 1-1 1h-1.3333c-0.55228 0-1-0.44772-1-1v-1.3333c0-0.55228 0.44772-1 1-1h1.3333zm-4.1667 1h-1.3333v1.3333h1.3333v-1.3333zm4.1667 0h-1.3333v1.3333h1.3333v-1.3333zm-9.5-9.5c1.1046 0 2 0.89543 2 2v3.5c0 1.1046-0.89543 2-2 2h-3.5c-1.1046 0-2-0.89543-2-2v-3.5c0-1.1046 0.89543-2 2-2h3.5zm8.5 0c1.1046 0 2 0.89543 2 2v3.5c0 1.1046-0.89543 2-2 2h-3.5c-1.1046 0-2-0.89543-2-2v-3.5c0-1.1046 0.89543-2 2-2h3.5zm-8.5 1h-3.5c-0.52718 0-0.95908 0.40794-0.99726 0.92537l-0.0027429 0.074631v3.5c0 0.52718 0.40794 0.95908 0.92537 0.99726l0.074631 0.0027429h3.5c0.52718 0 0.95908-0.40794 0.99726-0.92537l0.0027429-0.074631v-3.5c0-0.52718-0.40794-0.95908-0.92537-0.99726l-0.074631-0.0027429zm8.5 0h-3.5c-0.52718 0-0.95908 0.40794-0.99726 0.92537l-0.0027429 0.074631v3.5c0 0.52718 0.40794 0.95908 0.92537 0.99726l0.074631 0.0027429h3.5c0.52718 0 0.95908-0.40794 0.99726-0.92537l0.0027429-0.074631v-3.5c0-0.52718-0.40794-0.95908-0.92537-0.99726l-0.074631-0.0027429zm-10-5v1h-3c-2.1675 0-3.9323 1.7239-3.9981 3.8754l-0.0019034 0.12459v3h-1v-3c0-2.7614 2.2386-5 5-5h3zm11 0c2.7614 0 5 2.2386 5 5v3h-1v-3c0-2.1675-1.7239-3.9323-3.8754-3.9981l-0.12459-0.0019034h-3v-1h3z" fill="#056dae"/></g></svg>